<svg width="102" height="102" fill="none" xmlns="http://www.w3.org/2000/svg"><rect y="50.912" width="72" height="72" rx="20" transform="rotate(-45 0 50.912)" fill="#AFC82E"/><g clip-path="url(#clip0_36_1035)"><path d="M66.314 34.232a2.964 2.964 0 00-2.533-1.409h-4.514a5.96 5.96 0 00-5.38 3.345l-2.791 5.66c-.032 0-.063-.005-.095-.005-.021 0-.04.003-.061.003l-2.792-5.658a5.962 5.962 0 00-5.38-3.345h-4.514a2.969 2.969 0 00-2.535 1.409 2.97 2.97 0 00-.141 2.896l4.848 9.83a13.424 13.424 0 00-2.925 8.367c0 7.443 6.057 13.5 13.5 13.5s13.5-6.057 13.5-13.5a13.42 13.42 0 00-2.906-8.34l4.862-9.855a2.967 2.967 0 00-.141-2.897l-.002-.001zm-23.548 1.591c1.15 0 2.181.64 2.69 1.673l2.332 4.73a13.441 13.441 0 00-5.124 2.498l-4.412-8.9h4.514zm8.233 30c-5.79 0-10.5-4.71-10.5-10.5 0-5.49 4.238-10.002 9.614-10.455h.006c.291-.024.585-.045.882-.045 5.79 0 10.5 4.71 10.5 10.5s-4.71 10.5-10.5 10.5h-.002zm8.355-21.082a13.442 13.442 0 00-5.114-2.508l2.337-4.737a2.979 2.979 0 012.689-1.673l4.5-.022-4.411 8.94zm-2.119 9.697c0 .542-.377.998-.809 1.238l-2.235 1.242.992 2.704a1.267 1.267 0 01-.428 1.448 1.263 1.263 0 01-1.534-.01l-2.223-1.72-2.223 1.72a1.267 1.267 0 01-1.962-1.438l.991-2.704-2.235-1.242c-.431-.24-.808-.696-.808-1.238 0-.459.399-.966 1.044-.966h3.21l.85-3.262a1.188 1.188 0 011.133-.887c.533.01.998.37 1.133.887l.85 3.262h3.21c.645 0 1.044.506 1.044.966z" fill="#fff"/></g><defs><clipPath id="clip0_36_1035"><path fill="#fff" transform="translate(33 32.823)" d="M0 0h36v36H0z"/></clipPath></defs></svg>