<svg width="102" height="102" fill="none" xmlns="http://www.w3.org/2000/svg"><rect y="50.912" width="72" height="72" rx="20" transform="rotate(-45 0 50.912)" fill="#AFC82E"/><g clip-path="url(#clip0_36_1018)" fill="#fff"><path d="M47.5 51.2a9 9 0 10-9-9 9.01 9.01 0 009 9zm0-15a6 6 0 110 12 6 6 0 010-12zm0 18A13.517 13.517 0 0034 67.7a1.5 1.5 0 103 0 10.5 10.5 0 1121 0 1.5 1.5 0 103 0 13.517 13.517 0 00-13.5-13.5zM67 45.013a3.16 3.16 0 00-3 3.3 3.16 3.16 0 00-3-3.3 3.16 3.16 0 00-3 3.3c0 2.595 3.384 5.636 5.07 6.989a1.488 1.488 0 001.86 0c1.686-1.35 5.07-4.394 5.07-6.989a3.16 3.16 0 00-3-3.3z"/></g><defs><clipPath id="clip0_36_1018"><path fill="#fff" transform="translate(34 33.2)" d="M0 0h36v36H0z"/></clipPath></defs></svg>