<svg width="102" height="102" fill="none" xmlns="http://www.w3.org/2000/svg"><rect y="50.912" width="72" height="72" rx="20" transform="rotate(-45 0 50.912)" fill="#AFC82E"/><g clip-path="url(#clip0_36_1027)" fill="#fff"><path d="M60.871 36.122l-9.397-3.133a1.5 1.5 0 00-.948 0l-9.398 3.133A7.49 7.49 0 0036 43.236v7.676c0 11.345 13.8 17.61 14.391 17.871a1.5 1.5 0 001.218 0C52.2 68.522 66 62.257 66 50.912v-7.675a7.49 7.49 0 00-5.129-7.115zM63 50.912c0 8.182-9.478 13.55-12 14.834-2.525-1.28-12-6.63-12-14.834v-7.675a4.5 4.5 0 013.078-4.27L51 35.993l8.922 2.974A4.5 4.5 0 0163 43.237v7.675z"/><path d="M55.95 45.361l-6.282 6.3-3.366-3.51a1.5 1.5 0 10-2.161 2.08l3.459 3.6a2.806 2.806 0 002.017.9h.05a2.807 2.807 0 002.002-.83l6.408-6.408a1.506 1.506 0 00-2.127-2.132z"/></g><defs><clipPath id="clip0_36_1027"><path fill="#fff" transform="translate(33 32.912)" d="M0 0h36v36H0z"/></clipPath></defs></svg>