<svg width="102" height="102" fill="none" xmlns="http://www.w3.org/2000/svg"><rect y="50.912" width="72" height="72" rx="20" transform="rotate(-45 0 50.912)" fill="#AFC82E"/><g clip-path="url(#clip0_36_1042)"><path d="M51 32.912a18 18 0 1018 18 18.02 18.02 0 00-18-18zm15 18a14.907 14.907 0 01-2.493 8.262l-1.788-1.79a.75.75 0 01-.219-.53v-1.442a4.5 4.5 0 00-4.5-4.5h-4.5a1.5 1.5 0 01-1.5-1.5v-.75a.75.75 0 01.75-.75 3.75 3.75 0 003.75-3.75v-1.5a.75.75 0 01.75-.75h2.069a3.774 3.774 0 002.65-1.098l.566-.566A14.952 14.952 0 0166 50.912zm-29.926 1.444l4.736 4.737a4.468 4.468 0 003.183 1.319H48a1.5 1.5 0 011.5 1.5v5.923a15.024 15.024 0 01-13.426-13.479zM52.5 65.836v-5.924a4.5 4.5 0 00-4.5-4.5h-4.007a1.5 1.5 0 01-1.062-.44l-6.686-6.687a14.967 14.967 0 0122.939-9.928l-.336.336a.76.76 0 01-.53.219H56.25a3.75 3.75 0 00-3.75 3.75v1.5a.75.75 0 01-.75.75 3.75 3.75 0 00-3.75 3.75v.75a4.5 4.5 0 004.5 4.5H57a1.5 1.5 0 011.5 1.5v1.443a3.774 3.774 0 001.098 2.65l2.005 2.006a14.956 14.956 0 01-9.103 4.324z" fill="#fff"/></g><defs><clipPath id="clip0_36_1042"><path fill="#fff" transform="translate(33 32.912)" d="M0 0h36v36H0z"/></clipPath></defs></svg>